# xmcd
#
# Track frame offsets:
# 150
# 16725
# 44280
# 68664
# 78404
# 98161
# 115681
# 143399
# 163124
#
# Disc length: 2259 seconds
#
# Revision: 0
# Processed by: cddbd v1.4PL0 Copyright (c) Steve Scherf et al.
# Submitted via: Audion 3.0.2 (http://www.panic.com/audion/)
#
DISCID=6208d109
DTITLE=Araby Araby Araby Araby Araby - Your Wate and Fate
DYEAR=1900
DGENRE=
TTITLE0=This is How
TTITLE1=Everything I Say You Are
TTITLE2=Truth to Tell
TTITLE3=As You Would Know
TTITLE4=Ringside
TTITLE5=Fools
TTITLE6=Fake it/Crave it
TTITLE7=1000 Charms
TTITLE8=Outside
EXTD=
EXTT0=
EXTT1=
EXTT2=
EXTT3=
EXTT4=
EXTT5=
EXTT6=
EXTT7=
EXTT8=
PLAYORDER=
